<svg xmlns="http://www.w3.org/2000/svg" width="16" height="16"><path d="M6.22 9L4 13h8L9.78 9z" opacity=".3" fill="#555555"/><path d="M5.984.986A1 1 0 0 0 5 2v2.74c-.118.207-.94 1.646-1.883 3.414a64.852 64.852 0 0 0-1.396 2.748c-.194.412-.358.785-.483 1.112C1.114 12.34 1 12.542 1 13c0 0-.014.709.355 1.447C1.725 15.186 2.667 16 4 16h8c1.333 0 2.275-.814 2.645-1.553C15.014 13.709 15 13 15 13c0-.458-.114-.66-.238-.986-.125-.327-.289-.7-.483-1.112a65.41 65.41 0 0 0-1.396-2.748C11.939 6.386 11.118 4.947 11 4.74V2a1 1 0 1 0-2 0v3a1 1 0 0 0 .13.496s.996 1.741 1.987 3.6c.496.929.992 1.888 1.354 2.658.181.385.329.723.424.971.094.247.105.483.105.275 0 0-.014.291-.145.553-.13.261-.188.447-.855.447H4c-.667 0-.725-.186-.856-.447C3.014 13.291 3 13 3 13c0 .208.011-.028.106-.275.094-.248.242-.586.423-.971.362-.77.858-1.729 1.354-2.658.991-1.859 1.986-3.6 1.986-3.6A1 1 0 0 0 7 5V2A1 1 0 0 0 5.984.986z" fill="#555555"/><path d="M5 0h6c.554 0 1 .446 1 1s-.446 1-1 1H5c-.554 0-1-.446-1-1s.446-1 1-1z" fill="#555555" paint-order="stroke fill markers"/></svg>