<svg xmlns="http://www.w3.org/2000/svg" width="16" height="16"><path d="M.5 1h6c.277 0 .5.223.5.5v5c0 .277-.223.5-.5.5h-6a.499.499 0 0 1-.5-.5v-5c0-.277.223-.5.5-.5z" opacity=".3" fill="none"/><path d="M9.5 0C8.669 0 8 .67 8 1.5v4C8 6.33 8.669 7 9.5 7h4c.831 0 1.5-.67 1.5-1.5v-4c0-.83-.669-1.5-1.5-1.5zm.06 1c1.291.13 2.589.12 3.88 0 .3-.03.56.26.56.56v2.88c0 .3-.26.52-.56.56-1.261.15-2.539.18-3.88 0-.3-.04-.56-.26-.56-.56V1.56c0-.3.26-.59.56-.56zM1.5 1C.669 1 0 1.67 0 2.5v3C0 6.33.669 7 1.5 7h4C6.33 7 7 6.33 7 5.5v-3C7 1.67 6.33 1 5.5 1zm.06 1c1.692.2 2.849.13 3.88 0 .3-.04.56.26.56.56v2.88c0 .3-.26.52-.56.56-1.221.16-2.499.18-3.88 0-.3-.04-.56-.26-.56-.56V2.56c0-.3.26-.6.56-.56zM1.49 8C.659 8 0 8.67 0 9.5v4c0 .83.659 1.5 1.49 1.5h9.01c.831 0 1.5-.67 1.5-1.5v-4c0-.995-.669-1.5-1.5-1.5zm.06 1c3.183.27 6.116.23 8.89 0 .3-.03.56.26.56.56v2.88c0 .3-.26.53-.56.56-3.004.34-5.967.33-8.89 0-.3-.03-.55-.26-.55-.56V9.56c0-.3.25-.59.55-.56z" fill="#555555"/></svg>